<svg xmlns="http://www.w3.org/2000/svg" width="1em" height="1em" fill="none" viewBox="0 0 155 155" alt="sirius-logo" style="position:absolute;width:120px;height:120px;right:calc(50% - 5px);top:5px;transform:translate(50%)"><path stroke="url(#sirius-logo_svg__a)" stroke-linecap="round" stroke-linejoin="round" stroke-width="1.639" d="m72.227 89.123 30.716-9.317-25.47-25.08-5.246 34.397Z"></path><path stroke="url(#sirius-logo_svg__b)" stroke-linecap="round" stroke-linejoin="round" stroke-width="1.639" d="m121.419 54.727-18.481 25.08 26.126-1.513-7.645-23.567Z"></path><path stroke="url(#sirius-logo_svg__c)" stroke-linecap="round" stroke-linejoin="round" stroke-width="1.639" d="M106.374 35.695 102.938 79.8l18.481-25.08-15.045-19.024Z"></path><path stroke="url(#sirius-logo_svg__d)" stroke-linecap="round" stroke-linejoin="round" stroke-width="1.639" d="m77.469 54.719 28.906-19.024-3.437 44.104-25.47-25.08Z"></path><path stroke="url(#sirius-logo_svg__e)" stroke-linecap="round" stroke-linejoin="round" stroke-width="1.639" d="m85.283 28.047-26.111 1.848L77.47 54.723l7.813-26.676Z"></path><path stroke="url(#sirius-logo_svg__f)" stroke-linecap="round" stroke-linejoin="round" stroke-width="1.639" d="m85.282 28.047 21.093 7.652-28.906 19.024 7.813-26.676Z"></path><path stroke="url(#sirius-logo_svg__g)" stroke-linecap="round" stroke-linejoin="round" stroke-width="1.639" d="M59.178 29.898 39.391 47.043l38.086 7.683-18.299-24.828Z"></path><path stroke="url(#sirius-logo_svg__h)" stroke-linecap="round" stroke-linejoin="round" stroke-width="1.639" d="m66.48 70.454 10.997-15.732-38.086-7.683 27.088 23.415Z"></path><path stroke="url(#sirius-logo_svg__i)" stroke-linecap="round" stroke-linejoin="round" stroke-width="1.639" d="m48.362 96.36-3.956 19.313 19.536 10.669-15.58-29.983Z"></path><path stroke="url(#sirius-logo_svg__j)" stroke-linecap="round" stroke-linejoin="round" stroke-width="1.639" d="m48.352 96.357 15.58 29.983 8.285-37.223-23.865 7.24Z"></path><path stroke="url(#sirius-logo_svg__k)" stroke-linecap="round" stroke-linejoin="round" stroke-width="1.639" d="m63.922 126.35 18-21.475 9.066 21.475H63.922Z"></path><path stroke="url(#sirius-logo_svg__l)" stroke-linecap="round" stroke-linejoin="round" stroke-width="1.639" d="m81.938 104.875 9.065 21.475s21.788-12.769 21.177-12.189l-30.243-9.286Z"></path><path stroke="url(#sirius-logo_svg__m)" stroke-linecap="round" stroke-linejoin="round" stroke-width="1.639" d="m81.938 104.853 21.001-25.064 9.241 34.359-30.243-9.295Z"></path><path stroke="url(#sirius-logo_svg__n)" stroke-linecap="round" stroke-linejoin="round" stroke-width="1.639" d="m102.938 79.801 9.24 34.359 16.886-35.87-26.126 1.511Z"></path><path stroke="url(#sirius-logo_svg__o)" stroke-linecap="round" stroke-linejoin="round" stroke-width="1.639" d="m77.472 54.727-17.534 25.08 12.288 9.316 5.246-34.396Z"></path><path stroke="url(#sirius-logo_svg__p)" stroke-linecap="round" stroke-linejoin="round" stroke-width="1.639" d="m48.352 96.346 11.577-16.557 12.289 9.317-23.866 7.24Z"></path><path stroke="url(#sirius-logo_svg__q)" stroke-linecap="round" stroke-linejoin="round" stroke-width="1.639" d="m72.227 89.106 9.714 15.747 21.002-25.064-30.716 9.317Z"></path><path stroke="url(#sirius-logo_svg__r)" stroke-linecap="round" stroke-linejoin="round" stroke-width="1.639" d="m72.208 89.117-8.286 37.223 18-21.475-9.714-15.748Z"></path><path stroke="url(#sirius-logo_svg__s)" stroke-linecap="round" stroke-linejoin="round" stroke-width="1.639" d="m39.39 47.04 17.917 36.526 9.172-13.112-27.088-23.415Z"></path><path stroke="url(#sirius-logo_svg__t)" stroke-linecap="round" stroke-linejoin="round" stroke-width="1.639" d="m28.781 67.258 2.39 29.715 9.012-11.058 11.403-13.999"></path><path stroke="url(#sirius-logo_svg__u)" stroke-linecap="round" stroke-linejoin="round" stroke-width="1.639" d="m51.579 71.93-9.485 11.646h15.198L51.579 71.93Z"></path><path stroke="url(#sirius-logo_svg__v)" stroke-linecap="round" stroke-linejoin="round" stroke-width="1.639" d="M42.094 83.563h15.198l-8.943 12.791-6.255-12.791Z"></path><path stroke="url(#sirius-logo_svg__w)" stroke-linecap="round" stroke-linejoin="round" stroke-width="1.639" d="m48.355 96.354-6.254-12.791-10.93 13.41 17.184-.619Z"></path><path stroke="url(#sirius-logo_svg__x)" stroke-linecap="round" stroke-linejoin="round" stroke-width="1.639" d="m31.172 96.978 17.183-.619-3.956 19.314-13.227-18.695Z"></path><path stroke="url(#sirius-logo_svg__y)" stroke-linecap="round" stroke-linejoin="round" stroke-width="1.639" d="m39.382 47.04-10.6 20.222 22.804 4.658-12.204-24.88Z"></path><defs><linearGradient id="sirius-logo_svg__a" x1="87.585" x2="87.585" y1="54.727" y2="89.123" gradientUnits="userSpaceOnUse"><stop stop-color="#789FEC"></stop><stop offset="0.776" stop-color="#8DC5DE"></stop><stop offset="1" stop-color="#94D2ED"></stop></linearGradient><linearGradient id="sirius-logo_svg__b" x1="116.001" x2="116.001" y1="54.727" y2="79.806" gradientUnits="userSpaceOnUse"><stop stop-color="#789FEC"></stop><stop offset="0.776" stop-color="#8DC5DE"></stop><stop offset="1" stop-color="#94D2ED"></stop></linearGradient><linearGradient id="sirius-logo_svg__c" x1="112.178" x2="112.178" y1="35.695" y2="79.799" gradientUnits="userSpaceOnUse"><stop stop-color="#789FEC"></stop><stop offset="0.776" stop-color="#8DC5DE"></stop><stop offset="1" stop-color="#94D2ED"></stop></linearGradient><linearGradient id="sirius-logo_svg__d" x1="91.922" x2="91.922" y1="35.695" y2="79.799" gradientUnits="userSpaceOnUse"><stop stop-color="#789FEC"></stop><stop offset="0.776" stop-color="#8DC5DE"></stop><stop offset="1" stop-color="#94D2ED"></stop></linearGradient><linearGradient id="sirius-logo_svg__e" x1="72.228" x2="72.228" y1="28.047" y2="54.723" gradientUnits="userSpaceOnUse"><stop stop-color="#789FEC"></stop><stop offset="0.776" stop-color="#8DC5DE"></stop><stop offset="1" stop-color="#94D2ED"></stop></linearGradient><linearGradient id="sirius-logo_svg__f" x1="91.922" x2="91.922" y1="28.047" y2="54.723" gradientUnits="userSpaceOnUse"><stop stop-color="#789FEC"></stop><stop offset="0.776" stop-color="#8DC5DE"></stop><stop offset="1" stop-color="#94D2ED"></stop></linearGradient><linearGradient id="sirius-logo_svg__g" x1="58.434" x2="58.434" y1="29.898" y2="54.726" gradientUnits="userSpaceOnUse"><stop stop-color="#789FEC"></stop><stop offset="0.776" stop-color="#8DC5DE"></stop><stop offset="1" stop-color="#94D2ED"></stop></linearGradient><linearGradient id="sirius-logo_svg__h" x1="58.434" x2="58.434" y1="47.039" y2="70.454" gradientUnits="userSpaceOnUse"><stop stop-color="#789FEC"></stop><stop offset="0.776" stop-color="#8DC5DE"></stop><stop offset="1" stop-color="#94D2ED"></stop></linearGradient><linearGradient id="sirius-logo_svg__i" x1="54.174" x2="54.174" y1="96.359" y2="126.342" gradientUnits="userSpaceOnUse"><stop stop-color="#789FEC"></stop><stop offset="0.776" stop-color="#8DC5DE"></stop><stop offset="1" stop-color="#94D2ED"></stop></linearGradient><linearGradient id="sirius-logo_svg__j" x1="60.285" x2="60.285" y1="89.117" y2="126.34" gradientUnits="userSpaceOnUse"><stop stop-color="#789FEC"></stop><stop offset="0.776" stop-color="#8DC5DE"></stop><stop offset="1" stop-color="#94D2ED"></stop></linearGradient><linearGradient id="sirius-logo_svg__k" x1="77.455" x2="77.455" y1="104.875" y2="126.35" gradientUnits="userSpaceOnUse"><stop stop-color="#789FEC"></stop><stop offset="0.776" stop-color="#8DC5DE"></stop><stop offset="1" stop-color="#94D2ED"></stop></linearGradient><linearGradient id="sirius-logo_svg__l" x1="97.065" x2="97.065" y1="104.875" y2="126.35" gradientUnits="userSpaceOnUse"><stop stop-color="#789FEC"></stop><stop offset="0.776" stop-color="#8DC5DE"></stop><stop offset="1" stop-color="#94D2ED"></stop></linearGradient><linearGradient id="sirius-logo_svg__m" x1="97.059" x2="97.059" y1="79.789" y2="114.148" gradientUnits="userSpaceOnUse"><stop stop-color="#789FEC"></stop><stop offset="0.776" stop-color="#8DC5DE"></stop><stop offset="1" stop-color="#94D2ED"></stop></linearGradient><linearGradient id="sirius-logo_svg__n" x1="116.001" x2="116.001" y1="78.289" y2="114.16" gradientUnits="userSpaceOnUse"><stop stop-color="#789FEC"></stop><stop offset="0.776" stop-color="#8DC5DE"></stop><stop offset="1" stop-color="#94D2ED"></stop></linearGradient><linearGradient id="sirius-logo_svg__o" x1="68.705" x2="68.705" y1="54.727" y2="89.123" gradientUnits="userSpaceOnUse"><stop stop-color="#789FEC"></stop><stop offset="0.776" stop-color="#8DC5DE"></stop><stop offset="1" stop-color="#94D2ED"></stop></linearGradient><linearGradient id="sirius-logo_svg__p" x1="60.285" x2="60.285" y1="79.789" y2="96.346" gradientUnits="userSpaceOnUse"><stop stop-color="#789FEC"></stop><stop offset="0.776" stop-color="#8DC5DE"></stop><stop offset="1" stop-color="#94D2ED"></stop></linearGradient><linearGradient id="sirius-logo_svg__q" x1="87.585" x2="87.585" y1="79.789" y2="104.853" gradientUnits="userSpaceOnUse"><stop stop-color="#789FEC"></stop><stop offset="0.776" stop-color="#8DC5DE"></stop><stop offset="1" stop-color="#94D2ED"></stop></linearGradient><linearGradient id="sirius-logo_svg__r" x1="72.922" x2="72.922" y1="89.117" y2="126.34" gradientUnits="userSpaceOnUse"><stop stop-color="#789FEC"></stop><stop offset="0.776" stop-color="#8DC5DE"></stop><stop offset="1" stop-color="#94D2ED"></stop></linearGradient><linearGradient id="sirius-logo_svg__s" x1="52.935" x2="52.935" y1="47.039" y2="83.566" gradientUnits="userSpaceOnUse"><stop stop-color="#789FEC"></stop><stop offset="0.776" stop-color="#8DC5DE"></stop><stop offset="1" stop-color="#94D2ED"></stop></linearGradient><linearGradient id="sirius-logo_svg__t" x1="40.183" x2="40.183" y1="67.258" y2="96.973" gradientUnits="userSpaceOnUse"><stop stop-color="#789FEC"></stop><stop offset="0.776" stop-color="#8DC5DE"></stop><stop offset="1" stop-color="#94D2ED"></stop></linearGradient><linearGradient id="sirius-logo_svg__u" x1="49.693" x2="49.693" y1="71.93" y2="83.576" gradientUnits="userSpaceOnUse"><stop stop-color="#789FEC"></stop><stop offset="0.776" stop-color="#8DC5DE"></stop><stop offset="1" stop-color="#94D2ED"></stop></linearGradient><linearGradient id="sirius-logo_svg__v" x1="49.693" x2="49.693" y1="83.563" y2="96.354" gradientUnits="userSpaceOnUse"><stop stop-color="#789FEC"></stop><stop offset="0.776" stop-color="#8DC5DE"></stop><stop offset="1" stop-color="#94D2ED"></stop></linearGradient><linearGradient id="sirius-logo_svg__w" x1="39.764" x2="39.764" y1="83.563" y2="96.973" gradientUnits="userSpaceOnUse"><stop stop-color="#789FEC"></stop><stop offset="0.776" stop-color="#8DC5DE"></stop><stop offset="1" stop-color="#94D2ED"></stop></linearGradient><linearGradient id="sirius-logo_svg__x" x1="39.764" x2="39.764" y1="96.359" y2="115.673" gradientUnits="userSpaceOnUse"><stop stop-color="#789FEC"></stop><stop offset="0.776" stop-color="#8DC5DE"></stop><stop offset="1" stop-color="#94D2ED"></stop></linearGradient><linearGradient id="sirius-logo_svg__y" x1="40.183" x2="40.183" y1="47.039" y2="71.92" gradientUnits="userSpaceOnUse"><stop stop-color="#789FEC"></stop><stop offset="0.776" stop-color="#8DC5DE"></stop><stop offset="1" stop-color="#94D2ED"></stop></linearGradient></defs></svg>